{
    "asset": {
        "version": "2.0",
        "generator": "Open Asset Import Library (assimp v5.2.cf7d3637)"
    },
    "extensionsUsed": [
        "KHR_materials_volume",
        "FB_ngon_encoding"
    ],
    "accessors": [
        {
            "bufferView": 0,
            "byteOffset": 0,
            "componentType": 5126,
            "count": 71451,
            "type": "VEC3",
            "max": [
                0.9638519883155823,
                1.0,
                0.958092987537384
            ],
            "min": [
                -0.9638519883155823,
                -1.0,
                -0.958092987537384
            ]
        },
        {
            "bufferView": 1,
            "byteOffset": 0,
            "componentType": 5126,
            "count": 71451,
            "type": "VEC3",
            "max": [
                0.9997395873069763,
                0.9999276399612427,
                0.9999817609786987
            ],
            "min": [
                -0.9998440146446228,
                -0.9999181032180786,
                -0.9999452829360962
            ]
        },
        {
            "bufferView": 2,
            "byteOffset": 0,
            "componentType": 5126,
            "count": 71451,
            "type": "VEC2",
            "max": [
                1.0,
                1.0
            ],
            "min": [
                0.0000680088996887207,
                0.0005340576171875
            ]
        },
        {
            "bufferView": 3,
            "byteOffset": 0,
            "componentType": 5125,
            "count": 71451,
            "type": "SCALAR",
            "max": [
                71450
            ],
            "min": [
                0
            ]
        }
    ],
    "buffers": [
        {
            "byteLength": 2572236,
            "uri": "result.bin"
        }
    ],
    "bufferViews": [
        {
            "buffer": 0,
            "byteOffset": 0,
            "byteLength": 857412,
            "target": 34962
        },
        {
            "buffer": 0,
            "byteOffset": 857412,
            "byteLength": 857412,
            "target": 34962
        },
        {
            "buffer": 0,
            "byteOffset": 1714824,
            "byteLength": 571608,
            "target": 34962
        },
        {
            "buffer": 0,
            "byteOffset": 2286432,
            "byteLength": 285804,
            "target": 34963
        }
    ],
    "images": [
        {
            "uri": "data:image/jpeg;base64,"
        }
    ],
    "materials": [
        {
            "name": "material",
            "pbrMetallicRoughness": {
                "baseColorTexture": {
                    "index": 0
                },
                "metallicFactor": 0.0,
                "roughnessFactor": 0.800000011920929
            },
            "doubleSided": true
        },
        {
            "name": "material"
        }
    ],
    "meshes": [
        {
            "name": "meshes[0]",
            "primitives": [
                {
                    "mode": 4,
                    "material": 0,
                    "indices": 3,
                    "attributes": {
                        "POSITION": 0,
                        "NORMAL": 1,
                        "TEXCOORD_0": 2
                    }
                }
            ]
        }
    ],
    "nodes": [
        {
            "name": "nodes[0]",
            "mesh": 0
        }
    ],
    "samplers": [
        {
            "magFilter": 9729,
            "minFilter": 9987
        }
    ],
    "scenes": [
        {
            "nodes": [
                0
            ]
        }
    ],
    "textures": [
        {
            "source": 0,
            "sampler": 0
        }
    ],
    "scene": 0
}